HIERARCHY
ROOT pelvis
{
  OFFSET 0 100 0
  CHANNELS 6 Xposition Yposition Zposition Zrotation Xrotation Yrotation
  JOINT pelvis_right_femur
  {
    OFFSET -10.78128 -3.44521 -0.5502486
    CHANNELS 3 Zrotation Xrotation Yrotation
    JOINT right_femur_tibia
    {
      OFFSET -0.8047443 -44.0398 -0.1307829
      CHANNELS 3 Zrotation Xrotation Yrotation
      JOINT right_tibia_foot
      {
        OFFSET 3.006224 -47.83518 -5
        CHANNELS 3 Zrotation Xrotation Yrotation
        End Site
        {
          OFFSET 0 -5 15
        }
      }
    }
  }
  JOINT pelvis_left_femur
  {
    OFFSET 10.78128 -3.44521 -0.5502486
    CHANNELS 3 Zrotation Xrotation Yrotation
    JOINT left_femur_tibia
    {
      OFFSET 0.8047443 -44.0398 -0.1307829
      CHANNELS 3 Zrotation Xrotation Yrotation
      JOINT left_tibia_foot
      {
        OFFSET -4.370144 -48.10324 -4.275266
        CHANNELS 3 Zrotation Xrotation Yrotation
        End Site
        {
          OFFSET 0 -5 15
        }
      }
    }
  }
  JOINT pelvis_spine1
  {
    OFFSET 0 6.468898 -3.129235
    CHANNELS 3 Zrotation Xrotation Yrotation
    JOINT spine1
    {
      OFFSET 0 23.15396 4.99043
      CHANNELS 3 Zrotation Xrotation Yrotation
      JOINT spine2
      {
        OFFSET 0 20.79997 -5.064912
        CHANNELS 3 Zrotation Xrotation Yrotation
        JOINT neck
        {
          OFFSET 0 14.38658 9.616178
          CHANNELS 3 Zrotation Xrotation Yrotation
          End Site
          {
            OFFSET 0 20 0
          }
        }
      }
      JOINT right_manubrium
      {
        OFFSET -5.722621 16.35077 3.967754
        CHANNELS 3 Zrotation Xrotation Yrotation
        JOINT right_clavicle
        {
          OFFSET -13.16364 1.694482 -4.693211
          CHANNELS 3 Zrotation Xrotation Yrotation
          JOINT right_humerus
          {
            OFFSET -28.5034 -0.3100689 -2.792744
            CHANNELS 3 Zrotation Xrotation Yrotation
            JOINT right_radius
            {
              OFFSET -25.15693 0.02248979 -1.271978
              CHANNELS 3 Zrotation Xrotation Yrotation
              End Site
              {
                OFFSET -15 0 0
              }
            }
          }
        }
      }
      JOINT left_manubrium
      {
        OFFSET 5.722621 16.35077 3.967754
        CHANNELS 3 Zrotation Xrotation Yrotation
        JOINT left_clavicle
        {
          OFFSET 13.16364 1.694482 -4.693211
          CHANNELS 3 Zrotation Xrotation Yrotation
          JOINT left_humerus
          {
            OFFSET 29.39168 -1.063119 -2.237045
            CHANNELS 3 Zrotation Xrotation Yrotation
            JOINT left_radius
            {
              OFFSET 24.59957 -0.9528479 0.9047498
              CHANNELS 3 Zrotation Xrotation Yrotation
              End Site
              {
                OFFSET 15 -0 -0
              }
            }
          }
        }
      }
    }
  }
}
MOTION
Frames: 15
Frame Time: 0.0416666666667
0 103.5113 0 1.626711 -1.840842 -0.2227052 2.633176 -12.35322 6.84162 -0 33.83663 -0 -7.023177 -16.21808 -3.934957 -6.879935 13.52034 -25.64707 -0 4.407044 -0 0.3921723 -20.18865 24.74341 -4.021037 -3.582193 3.25444 2.189474 8.18418 -8.008351 0.1560044 23.65975 8.30387 4.770592 -22.27581 7.721667 7.293747 -18.92085 11.5439 86.61851 38.40222 -22.10904 -0 0 14.63196 -8.754811 8.127162 5.716615 4.538673 -18.96547 -3.766687 -100.6043 41.16519 27.96488 0 0 -20.07155 -12.44291 17.07212 27.73446
0.1284999 103.8756 1.124727 1.230326 -1.618239 -0.4582705 3.058158 -14.14177 6.975983 -0 34.9296 -0 -7.017495 -15.13594 -4.023738 -6.687414 13.25694 -24.99256 -0 4.746843 -0 0.3928885 -20.305 24.13805 -3.759973 -3.319623 3.264695 2.235667 8.311594 -8.113529 0.2455571 23.35631 8.22919 4.6805 -22.66106 7.81155 7.15556 -19.03551 11.54727 86.64405 37.88415 -22.03477 -0 0 14.87585 -8.741933 8.169516 5.732582 4.598075 -19.21437 -3.633197 -100.0649 40.46498 27.75842 0 0 -20.25528 -11.48831 16.89311 27.0352
0.2860127 104.0781 2.583176 0.09626218 -0.6449956 -0.6823044 4.200183 -21.04462 6.459282 -0 33.51419 -0 -7.303343 -11.39804 -3.902708 -5.96918 12.97815 -23.47616 -0 5.097514 -0 -1.205115 -22.08702 21.95123 -2.87692 -2.117475 3.187084 2.213889 8.31003 -8.34426 0.4491126 22.50622 8.583932 5.175002 -23.38637 8.011331 6.947561 -18.90789 11.42237 86.67386 37.4522 -22.18838 -0 0 15.26454 -9.520947 8.824297 6.006176 5.409859 -20.16427 -3.514362 -99.10114 39.91516 27.03235 0 0 -21.91876 -10.79335 16.2498 27.14525
0.4341286 103.9921 4.324809 -0.3873147 0.1885212 -0.8291852 4.688117 -25.89422 6.08789 -0 29.59228 -0 -7.22297 -9.627219 -3.842327 -5.62339 13.19723 -22.57232 -0 5.228389 -0 -2.209689 -23.81767 20.26226 -2.523528 -1.372522 3.262801 2.283496 8.056011 -8.43333 0.7540875 22.01048 8.608487 5.318931 -23.86985 8.271733 6.58583 -18.69168 11.19305 86.71989 36.78852 -22.45819 -0 0 15.45242 -9.670929 9.150846 5.960515 6.04042 -20.72286 -3.296979 -98.19812 39.62934 26.04903 0 0 -23.39675 -10.1672 15.91759 26.97212
0.5406402 103.5781 6.51222 -0.5084979 0.8499767 -0.8202532 4.609613 -29.90338 5.336113 -0 24.54941 -0 -6.957332 -7.978438 -3.909167 -5.433148 13.79747 -21.30313 -0 5.539622 -0 -3.13312 -25.50524 18.22499 -2.500933 -0.7420209 3.263272 2.389405 7.683532 -8.475471 1.113435 21.71636 8.393851 5.150651 -24.13254 8.535519 6.007169 -18.19435 10.89142 87.00259 35.79596 -22.81581 -0 0 15.0267 -9.992556 9.537646 5.98123 6.484505 -21.18578 -3.092793 -96.32846 39.01196 23.9026 0 0 -24.98973 -9.052184 15.63172 26.04197
0.5745858 102.8793 9.26915 -0.387741 1.346516 -0.6042881 4.19405 -32.68288 4.366279 -0 19.29584 -0 -6.641355 -6.488329 -4.08392 -5.317182 14.72467 -19.86491 -0 6.196465 -0 -4.006679 -26.77105 16.11032 -2.679132 -0.295061 3.130891 2.5203 7.251677 -8.484284 1.459759 21.59221 8.010899 4.765451 -24.2127 8.736389 5.382645 -17.46818 10.59494 87.44221 34.76626 -23.18509 -0 0 14.0654 -10.38481 9.957422 6.055465 6.686995 -21.47235 -2.935788 -93.9831 38.10947 21.13444 0 0 -26.37587 -7.67735 15.40223 24.59878
0.5102284 102.0111 12.72349 -0.2265933 1.626033 -0.1604766 3.755354 -34.15288 3.350202 -0 14.94889 -0 -6.376037 -5.073858 -4.397038 -5.13173 15.91036 -18.2268 -0 7.495421 -0 -4.986602 -27.16471 13.98275 -2.837675 -0.006001108 2.774259 2.641472 6.835112 -8.485835 1.732531 21.58617 7.535736 4.244796 -24.07409 8.811148 4.812603 -16.52276 10.34927 87.99317 33.8316 -23.46163 -0 0 12.63556 -10.902 10.42633 6.232644 6.630119 -21.555 -2.877653 -91.36994 36.82939 17.98652 0 0 -27.322 -6.093456 15.12196 22.72416
0.3335885 101.1613 16.95339 -0.241877 1.670006 0.462913 3.693927 -34.31441 2.596038 -0 12.47745 -0 -6.263652 -3.88769 -4.835192 -4.753069 17.17802 -16.51259 -0 9.839689 -0 -6.140656 -26.25615 12.04435 -2.730227 0.1376239 2.186204 2.724255 6.516884 -8.505546 1.874449 21.63251 7.073051 3.714516 -23.73189 8.717574 4.414782 -15.45396 10.19697 88.56237 33.14579 -23.57383 -0 0 10.9625 -11.48414 10.90419 6.498016 6.342468 -21.42081 -2.936933 -88.92926 35.24159 14.97348 0 0 -27.6108 -4.47119 14.7194 20.6777
0.04800824 100.5562 21.95912 -0.5641984 1.442414 1.137521 4.235909 -33.26908 2.314945 -0 12.32135 -0 -6.338202 -3.208729 -5.364785 -4.142179 18.24515 -14.85782 -0 13.75558 -0 -7.442535 -23.83484 10.49915 -2.201193 0.1608642 1.471832 2.754064 6.366023 -8.552211 1.86253 21.6918 6.70602 3.273729 -23.22269 8.458997 4.238939 -14.3953 10.15491 89.07019 32.73802 -23.51368 -0 0 9.303525 -12.05453 11.33228 6.797743 5.883405 -21.10557 -3.092241 -87.02204 33.52251 12.54583 0 0 -27.18456 -2.987232 14.1652 18.75222
-0.3182146 100.407 27.64163 -1.143224 0.9086388 1.678871 5.264812 -31.13667 2.50019 -0 14.08331 -0 -6.530548 -3.322322 -5.912597 -3.406399 18.70748 -13.39563 -0 19.73849 -0 -8.772418 -20.11516 9.499288 -1.30045 0.1108845 0.864465 2.738191 6.413693 -8.592548 1.728602 21.77159 6.472685 2.969169 -22.61525 8.1027 4.2566 -13.49487 10.21929 89.45287 32.51805 -23.32947 -0 0 7.885052 -12.54096 11.66551 7.049163 5.325149 -20.68582 -3.277692 -85.86413 31.92793 11.0087 0 0 -26.18599 -1.80781 13.4991 17.22452
-0.7127815 100.8488 33.80943 -1.734579 0.05711929 1.913574 6.347363 -27.97715 2.942283 -0 16.62876 -0 -6.679543 -4.310265 -6.362249 -2.781562 18.08816 -12.20579 -0 27.96733 -0 -9.958305 -15.75566 9.091107 -0.3063184 0.07206395 0.6536012 2.691337 6.648487 -8.53979 1.55778 21.92177 6.354694 2.792536 -21.97888 7.759283 4.383907 -12.86861 10.37452 89.65341 32.34343 -23.05841 -0 0 6.847051 -12.93158 11.91088 7.191539 4.73786 -20.24759 -3.409957 -85.48244 30.66439 10.44213 0 0 -24.89084 -1.020172 12.80267 16.23173
-1.077569 101.8986 40.2145 -2.021756 -1.069711 1.761366 6.991316 -23.80957 3.386403 -0 18.63989 -0 -6.623496 -5.90138 -6.562691 -2.506295 15.94294 -11.29258 -0 37.95568 -0 -10.80477 -11.62897 9.245668 0.4023255 0.144853 1.050644 2.609356 7.039525 -8.283273 1.449985 22.18963 6.293501 2.716974 -21.35622 7.517598 4.539746 -12.58373 10.6039 89.59521 32.14362 -22.64115 -0 0 6.26581 -13.3024 12.12451 7.244222 4.192216 -19.85463 -3.430934 -85.76633 29.77062 10.74405 0 0 -23.5516 -0.5850034 12.15038 15.69851
-1.376238 103.447 46.60601 -1.807721 -2.366036 1.275383 6.947793 -18.72315 3.678728 -0 19.26569 -0 -6.321799 -7.550166 -6.381074 -2.649937 12.00717 -10.58143 -0 48.35025 -0 -11.12799 -8.458221 9.926718 0.559693 0.3879002 2.067114 2.456156 7.560749 -7.753238 1.463083 22.57033 6.219693 2.731183 -20.75422 7.375563 4.682297 -12.67482 10.89334 89.17415 31.97956 -21.89081 -0 0 6.214111 -13.80252 12.35641 7.330449 3.76556 -19.54031 -3.341325 -86.53039 29.08818 11.71529 0 0 -22.27536 -0.3439745 11.57984 15.37003
-1.607252 105.2782 52.78285 -1.138535 -3.669514 0.6028601 6.330758 -12.98349 3.777671 -0 18.39228 -0 -5.906476 -8.761689 -5.780931 -3.020591 6.322572 -9.923768 -0 57.06429 -0 -10.82393 -6.556547 11.10788 0.1647613 0.7806849 3.488181 2.183334 8.181239 -6.974686 1.57502 22.99374 6.085827 2.835976 -20.16312 7.234557 4.791425 -13.16833 11.22749 88.28465 31.9732 -20.55309 -0 0 6.795221 -14.60068 12.58766 7.639073 3.529806 -19.31391 -3.19846 -87.55733 28.3589 13.13504 0 0 -21.0274 -0.1029868 11.09536 14.95615
-1.788983 107.1023 58.63195 -0.2783347 -4.77856 -0.1060614 5.498695 -7.020378 3.668069 -0 16.42679 -0 -5.59046 -9.456446 -4.853292 -3.223541 -0.7134611 -9.111225 -0 61.80629 -0 -9.943966 -5.801267 12.71039 -0.5280143 1.244523 4.960887 1.77284 8.827395 -6.06771 1.693008 23.35453 5.892142 3.008417 -19.59217 6.978332 4.821354 -14.08514 11.58029 86.86912 32.16156 -18.42805 -0 0 8.118574 -15.81208 12.72306 8.338241 3.518957 -19.15537 -3.073423 -88.63962 27.39158 14.81886 0 0 -19.72926 0.2503777 10.67859 14.30588
